<?xml version="1.0" encoding="UTF-8"?>
<svg width="32px" height="32px" viewBox="0 0 32 32" version="1.1" xmlns="http://www.w3.org/2000/svg" xmlns:xlink="http://www.w3.org/1999/xlink">
    <!-- Generator: Sketch 51.2 (57519) - http://www.bohemiancoding.com/sketch -->
    <title>utr-search-event-default-icon@1x</title>
    <desc>Created with Sketch.</desc>
    <defs>
        <linearGradient x1="0%" y1="0%" x2="100%" y2="100%" id="linearGradient-1">
            <stop stop-color="#00BAB6" offset="0%"/>
            <stop stop-color="#D2DB00" offset="100%"/>
        </linearGradient>
        <path d="M0.9995,1 L15.0005,1 C15.5525,1 16.0005,1.447 16.0005,2 L16.0005,15 C16.0005,15.553 15.5525,16 15.0005,16 L0.9995,16 C0.4475,16 0.0005,15.553 0.0005,15 L0.0005,2 C0.0005,1.447 0.4475,1 0.9995,1 Z M1,5 L1,15 L15,15 L15,5 L1,5 Z M13,2 L15.0005,2 L15.0005,15 L1.0005,15 L0.9995,2 L3,2 L4,2 L12,2 L13,2 Z M3,1 L3,0.5 C3,0.224 3.224,0 3.5,0 C3.776,0 4,0.224 4,0.5 L4,1 L3,1 Z M12,1 L12,0.5 C12,0.224 12.224,0 12.5,0 C12.776,0 13,0.224 13,0.5 L13,1 L12,1 Z M1,5 L15,5 L15,4 L1,4 L1,5 Z M10.0738,7.5437 C8.8768,7.5437 8.0658,8.5677 8.0658,9.8867 C8.0658,11.1937 8.8578,12.2037 10.0608,12.2037 C11.2638,12.2037 12.0688,11.1797 12.0688,9.8607 C12.0688,8.5547 11.2638,7.5437 10.0738,7.5437 Z M11.0518,9.8737 L11.0518,9.8867 C11.0518,10.7037 10.6728,11.3087 10.0738,11.3087 C9.4748,11.3087 9.0828,10.6977 9.0828,9.8737 L9.0828,9.8607 C9.0828,9.0367 9.4688,8.4387 10.0608,8.4387 C10.6528,8.4387 11.0518,9.0567 11.0518,9.8737 Z M4.507,10.9085 L4.105,11.2925 C4.026,11.3675 4.023,11.4935 4.1,11.5705 C4.478,11.9485 5.001,12.2035 5.723,12.2035 C6.727,12.2035 7.345,11.5795 7.345,10.7305 L7.345,10.7165 C7.345,9.8805 6.746,9.5585 6.135,9.4555 L7.194,8.4435 C7.245,8.3955 7.274,8.3285 7.274,8.2575 L7.274,7.8785 C7.274,7.7365 7.159,7.6215 7.016,7.6215 L4.507,7.6215 C4.354,7.6215 4.23,7.7455 4.23,7.8975 L4.23,8.1935 C4.23,8.3475 4.354,8.4705 4.507,8.4705 L6,8.4705 L5.035,9.4405 C4.967,9.5095 4.939,9.6095 4.962,9.7045 L5.027,9.9705 C5.058,10.0955 5.17,10.1825 5.298,10.1825 L5.491,10.1825 C6.045,10.1825 6.373,10.3885 6.373,10.7685 C6.373,11.1035 6.109,11.3155 5.736,11.3155 C5.343,11.3155 5.05,11.1725 4.779,10.9115 C4.703,10.8385 4.584,10.8365 4.507,10.9085 Z M3,2 L3,2.5 C3,2.776 3.224,3 3.5,3 C3.776,3 4,2.776 4,2.5 L4,2 L3,2 Z M13,2 L12,2 L12,2.5 C12,2.776 12.224,3 12.5,3 C12.776,3 13,2.776 13,2.5 L13,2 Z" id="path-2"/>
    </defs>
    <g id="utr-search-event-default-icon" stroke="none" stroke-width="1" fill="none" fill-rule="evenodd">
        <g id="Default-profile-icon-Copy-4">
            <circle id="Oval" fill="url(#linearGradient-1)" cx="16" cy="16" r="16"/>
            <g id="color/grey/738B9C-medgray" transform="translate(8.000000, 7.000000)">
                <mask id="mask-3" fill="white">
                    <use xlink:href="#path-2"/>
                </mask>
                <use id="Mask" fill="#2B3339" xlink:href="#path-2"/>
                <g id="color/grey/ffffff-white" mask="url(#mask-3)" fill="#FFFFFF">
                    <rect id="Rectangle" x="0" y="0" width="16" height="16"/>
                </g>
            </g>
        </g>
    </g>
</svg>