<svg xmlns="http://www.w3.org/2000/svg" width="70" height="19" viewBox="0 0 70 19">
    <g fill="#A5B2BB" fill-rule="evenodd">
        <path d="M69.267 6.833C69.22 3.023 66.007 0 62.179 0h-27.2a.462.462 0 0 0-.464.461v10.05c0 1.86-1.433 3.464-3.3 3.556-1.995.098-3.65-1.49-3.65-3.456V.461A.462.462 0 0 0 27.1 0h-3.707a.462.462 0 0 0-.463.461v10.15c0 4.46 3.63 8.074 8.109 8.074 4.478 0 8.109-3.615 8.109-8.074V4.614h4.633v13.38c0 .254.208.46.464.46h3.707a.463.463 0 0 0 .463-.46V4.613h4.634v13.38c0 .254.207.46.463.46h3.707a.463.463 0 0 0 .463-.46V4.613h4.552c1.233 0 2.31.924 2.393 2.148a2.313 2.313 0 0 1-2.311 2.465h-2.674a.461.461 0 0 0-.402.692l4.796 8.304a.464.464 0 0 0 .401.231h4.411a.23.23 0 0 0 .197-.353l-3.257-5.187a6.91 6.91 0 0 0 3.478-6.08M16.593 4.436c0-.452.585-.636.845-.265a9.38 9.38 0 0 1 1.703 5.402c0 5.451-4.632 9.826-10.19 9.434C4.26 18.676.477 14.89.164 10.22a9.392 9.392 0 0 1 1.684-6.053c.259-.368.843-.182.843.268v5.138c0 3.822 3.112 6.92 6.95 6.92 3.839 0 6.95-3.098 6.95-6.92V4.436zM5.009 2.175c0-.553.33-1.052.839-1.273A9.491 9.491 0 0 1 9.642.115c1.35 0 2.633.282 3.795.787.508.221.839.72.839 1.273v7.398c0 2.603-2.177 4.71-4.812 4.61-2.508-.094-4.455-2.225-4.455-4.723V2.175z"/>
    </g>
</svg>