<svg xmlns="http://www.w3.org/2000/svg" xmlns:xlink="http://www.w3.org/1999/xlink" width="96" height="40" viewBox="0 0 96 40">
    <defs>
        <path id="a" d="M0 .31h12.507v19.063H0z"/>
        <path id="c" d="M0 .221h25.64v20.402H0z"/>
        <path id="e" d="M.29.056h1.47v1.427H.29z"/>
    </defs>
    <g fill="none" fill-rule="evenodd">
        <path fill="#2B3339" d="M94.066 9.882C94.001 4.72 89.533.625 84.211.625H46.389a.635.635 0 0 0-.644.625v13.614c0 2.52-1.993 4.693-4.589 4.817-2.774.134-5.076-2.018-5.076-4.681V1.25a.635.635 0 0 0-.644-.625h-5.154a.635.635 0 0 0-.645.625V15c0 6.04 5.049 10.937 11.276 10.937 6.227 0 11.275-4.896 11.275-10.937V6.875h6.443V25c0 .345.288.625.644.625h5.154c.356 0 .645-.28.645-.625V6.875h6.443V25c0 .345.288.625.644.625h5.154c.356 0 .645-.28.645-.625V6.875h6.329c1.714 0 3.213 1.252 3.328 2.91.125 1.82-1.365 3.34-3.214 3.34h-3.719c-.495 0-.805.52-.558.936l6.668 11.25a.647.647 0 0 0 .558.314h6.134c.253 0 .407-.27.273-.478l-4.528-7.027c2.923-1.64 4.88-4.718 4.835-8.238"/>
        <g transform="translate(6.566 .002)">
            <mask id="b" fill="#fff">
                <use xlink:href="#a"/>
            </mask>
            <path fill="#08BAB5" d="M0 3.1v9.87c0 3.384 2.628 6.27 6.012 6.398a6.259 6.259 0 0 0 6.495-6.245V3.1c0-.75-.446-1.425-1.133-1.725A12.769 12.769 0 0 0 6.254.31C4.432.31 2.7.692 1.133 1.376.446 1.676 0 2.352 0 3.101" mask="url(#b)"/>
        </g>
        <g transform="translate(0 5.315)">
            <mask id="d" fill="#fff">
                <use xlink:href="#c"/>
            </mask>
            <path fill="#08BAB5" d="M22.2.85v6.96c0 5.178-4.2 9.375-9.38 9.375-5.181 0-9.38-4.197-9.38-9.375V.85c0-.61-.789-.863-1.138-.363a12.76 12.76 0 0 0-2.273 8.2c.422 6.326 5.529 11.454 11.857 11.903 7.502.53 13.753-5.395 13.753-12.78 0-2.721-.85-5.244-2.299-7.318C22.99-.01 22.2.239 22.2.85" mask="url(#d)"/>
        </g>
        <path fill="#EC1D24" d="M89.408 37.195c-.967 0-1.786-.632-2.036-1.493h5.376l.74-1.118h-6.117c.25-.864 1.067-1.497 2.037-1.497h3.69l.742-1.118h-4.518c-1.805 0-3.27 1.42-3.27 3.172 0 1.752 1.465 3.172 3.27 3.172h3.88l.74-1.118h-4.534zm-15.384 1.118c-1.805 0-3.27-1.42-3.27-3.172 0-1.752 1.465-3.172 3.27-3.172h4.518l-.74 1.118H74.11c-1.17 0-2.118.92-2.118 2.054 0 1.135.948 2.054 2.118 2.054h4.534l-.74 1.118h-3.88zm-23.882-1.118c1.17 0 2.117-.92 2.117-2.054s-.948-2.054-2.117-2.054H46.51c-1.17 0-2.117.92-2.117 2.054 0 1.135.948 2.054 2.117 2.054h3.632zm-3.717 1.118c-1.805 0-3.27-1.42-3.27-3.172 0-1.752 1.465-3.172 3.27-3.172h3.802c1.806 0 3.27 1.42 3.27 3.172 0 1.753-1.464 3.173-3.27 3.173l-3.802-.001zm13.244-2.054c1.22 0 2.21-.961 2.21-2.145 0-1.184-.99-2.145-2.21-2.145h-5.503v6.344h1.256v-5.226h4.16c.586 0 1.058.46 1.058 1.027s-.472 1.027-1.058 1.027h-3.544l3.753 3.172h1.827l-2.525-2.055h.576zm20.806.935V31.97h-1.259v5.736c0 .159.067.31.184.424a.658.658 0 0 0 .46.184h5.735l.74-1.119h-5.86zm-15.396-1.12h3.355l-1.772-2.771-3.255 5.01h-1.483l3.961-6.015a.933.933 0 0 1 .774-.392c.312 0 .598.143.767.381l3.975 6.027-1.484-.001-.697-1.12h-3.4l-.741-1.118z"/>
        <g transform="translate(94.067 31.877)">
            <mask id="f" fill="#fff">
                <use xlink:href="#e"/>
            </mask>
            <path fill="#EC1D24" d="M1.012.707c.05 0 .105-.004.137-.05A.115.115 0 0 0 1.168.59a.105.105 0 0 0-.062-.097C1.069.478 1.03.478.954.478H.91v.23h.103zM.954.347c.114 0 .16 0 .216.02.145.048.16.178.16.225 0 .01-.002.037-.009.065a.216.216 0 0 1-.102.137c-.009.007-.013.01-.037.02l.191.331h-.185L1.021.84H.909v.305H.747V.346h.207zm.07 1.136c.406 0 .736-.32.736-.713a.725.725 0 0 0-.736-.714.724.724 0 0 0-.735.714c0 .393.33.713.735.713zM.446.767c0-.31.258-.56.578-.56.32 0 .577.25.577.56a.568.568 0 0 1-.577.561.569.569 0 0 1-.578-.561z" mask="url(#f)"/>
        </g>
        <path fill="#89ACBE" d="M1.23 35.383h.888c.492 0 1.246-.037 1.246-.89 0-.819-.702-.819-1.09-.819H1.23v1.709zm-.746-2.295h1.805c.657 0 1.105.036 1.47.42.27.268.396.623.396 1.013 0 .399-.135.739-.425 1.021-.284.275-.657.449-1.627.449H1.23v2.323H.484v-5.226zM6.25 37.93c.53 0 1.135-.369 1.135-1.462 0-.904-.433-1.382-1.09-1.382-.447 0-1.171.275-1.171 1.412 0 .745.328 1.433 1.127 1.433m.044-3.344c1.5 0 1.836 1.143 1.836 1.903 0 1.064-.62 1.947-1.896 1.947-1.238 0-1.843-.832-1.843-1.896 0-.898.433-1.954 1.903-1.954M9.279 34.68l.903 2.896.947-2.895h.918l.85 2.866.941-2.866h.724l-1.321 3.633h-.806l-.88-2.99-.978 2.99H9.75L8.51 34.681zM17.545 36.143c.007-.348-.06-1.072-.925-1.072-.455 0-1.007.269-1.022 1.072h1.947zm-1.977.477c-.015.753.306 1.31 1.074 1.31.456 0 .821-.231.881-.752h.701c-.022.18-.052.478-.32.76-.165.18-.538.485-1.292.485-1.179 0-1.738-.71-1.738-1.86 0-.717.15-1.31.739-1.709.358-.246.805-.267 1.022-.267 1.679 0 1.642 1.44 1.627 2.033h-2.694zM19.178 35.42c0-.247-.015-.5-.037-.74h.71l.014.703c.134-.507.582-.674.895-.717.21-.029.366-.022.485-.014v.666a.602.602 0 0 0-.134-.03c-.052-.006-.12-.006-.201-.006-.829 0-1.023.477-1.023 1.1v1.932h-.709V35.42zM24.446 36.143c.007-.348-.06-1.072-.926-1.072-.455 0-1.007.269-1.022 1.072h1.948zm-1.978.477c-.015.753.306 1.31 1.075 1.31.455 0 .82-.231.88-.752h.701c-.022.18-.052.478-.32.76-.164.18-.538.485-1.291.485-1.18 0-1.739-.71-1.739-1.86 0-.717.15-1.31.74-1.709.357-.246.805-.267 1.021-.267 1.68 0 1.642 1.44 1.627 2.033h-2.694zM28.377 35.433c-.15-.188-.425-.369-.82-.369-1.03 0-1.03 1.21-1.03 1.455 0 .644.17 1.39 1.03 1.39 1.104 0 1.104-1.18 1.104-1.462 0-.529-.128-.818-.284-1.014zm.261-2.337h.701v4.64c0 .079.015.39.03.578h-.701l-.015-.579c-.06.102-.142.254-.336.384a1.739 1.739 0 0 1-.925.268c-.5 0-1.612-.254-1.612-1.846 0-1.383.813-1.984 1.694-1.984.806 0 1.075.464 1.164.616v-2.077zM34.434 35.05c-1.074 0-1.074 1.216-1.074 1.448 0 .238 0 1.375 1.044 1.375.866 0 1.083-.818 1.083-1.412 0-.362-.075-1.411-1.053-1.411zm-1.06.16c.098-.167.374-.623 1.225-.623.373 0 .843.086 1.186.463.186.21.44.572.44 1.368 0 .702-.171 1.086-.358 1.324-.298.413-.798.623-1.313.623-.18 0-.515-.022-.836-.232-.209-.137-.29-.26-.365-.369l-.015.55h-.68l.015-.651v-4.575h.702v2.121zM38.769 38.336l-.538 1.354h-.724l.568-1.39-1.56-3.62h.791l1.172 2.867 1.194-2.866h.76z"/>
    </g>
</svg>